<svg xmlns="http://www.w3.org/2000/svg" xmlns:xlink="http://www.w3.org/1999/xlink" aria-hidden="true" role="img" 
    class="iconify iconify--logos" preserveAspectRatio="xMidYMid meet" >
    <defs id="SvgjsDefs1157"></defs>
    <g id="SvgjsG1158" featurekey="symbolFeature-0"
        transform="matrix(1.2820512820512822,0,0,1.2820512820512822,312.1794871794872,-459.61538461538464)"
        fill="#125c7c">
        <path xmlns="http://www.w3.org/2000/svg"
            d="M-167.5,390.5c-1.1,0-2-0.9-2-2c0-1.1,0.9-2,2-2c1.1,0,2,0.9,2,2C-165.5,389.6-166.4,390.5-167.5,390.5z   M-177.5,428.5c-2.2,0-4-1.8-4-4s1.8-4,4-4c2.2,0,4,1.8,4,4S-175.3,428.5-177.5,428.5z M-177.5,410.5c-2.2,0-4-1.8-4-4s1.8-4,4-4  c2.2,0,4,1.8,4,4S-175.3,410.5-177.5,410.5z M-177.5,392.5c-2.2,0-4-1.8-4-4c0-2.2,1.8-4,4-4c2.2,0,4,1.8,4,4  C-173.5,390.7-175.3,392.5-177.5,392.5z M-177.5,374.5c-2.2,0-4-1.8-4-4c0-2.2,1.8-4,4-4c2.2,0,4,1.8,4,4  C-173.5,372.7-175.3,374.5-177.5,374.5z M-194.5,414.5c-3.9,0-7-3.1-7-7c0-3.9,3.1-7,7-7c3.9,0,7,3.1,7,7  C-187.5,411.4-190.6,414.5-194.5,414.5z M-194.5,394.5c-3.9,0-7-3.1-7-7c0-3.9,3.1-7,7-7c3.9,0,7,3.1,7,7  C-187.5,391.4-190.6,394.5-194.5,394.5z M-195.5,374.5c-2.2,0-4-1.8-4-4c0-2.2,1.8-4,4-4c2.2,0,4,1.8,4,4  C-191.5,372.7-193.3,374.5-195.5,374.5z M-195.5,362.5c-1.1,0-2-0.9-2-2c0-1.1,0.9-2,2-2c1.1,0,2,0.9,2,2  C-193.5,361.6-194.4,362.5-195.5,362.5z M-214.5,414.5c-3.9,0-7-3.1-7-7c0-3.9,3.1-7,7-7s7,3.1,7,7  C-207.5,411.4-210.6,414.5-214.5,414.5z M-214.5,394.5c-3.9,0-7-3.1-7-7c0-3.9,3.1-7,7-7s7,3.1,7,7  C-207.5,391.4-210.6,394.5-214.5,394.5z M-213.5,374.5c-2.2,0-4-1.8-4-4c0-2.2,1.8-4,4-4c2.2,0,4,1.8,4,4  C-209.5,372.7-211.3,374.5-213.5,374.5z M-213.5,362.5c-1.1,0-2-0.9-2-2c0-1.1,0.9-2,2-2c1.1,0,2,0.9,2,2  C-211.5,361.6-212.4,362.5-213.5,362.5z M-231.5,374.5c-2.2,0-4-1.8-4-4c0-2.2,1.8-4,4-4c2.2,0,4,1.8,4,4  C-227.5,372.7-229.3,374.5-231.5,374.5z M-231.5,384.5c2.2,0,4,1.8,4,4c0,2.2-1.8,4-4,4c-2.2,0-4-1.8-4-4  C-235.5,386.3-233.7,384.5-231.5,384.5z M-241.5,408.5c-1.1,0-2-0.9-2-2c0-1.1,0.9-2,2-2c1.1,0,2,0.9,2,2  C-239.5,407.6-240.4,408.5-241.5,408.5z M-241.5,390.5c-1.1,0-2-0.9-2-2c0-1.1,0.9-2,2-2c1.1,0,2,0.9,2,2  C-239.5,389.6-240.4,390.5-241.5,390.5z M-231.5,402.5c2.2,0,4,1.8,4,4s-1.8,4-4,4c-2.2,0-4-1.8-4-4S-233.7,402.5-231.5,402.5z   M-231.5,420.5c2.2,0,4,1.8,4,4s-1.8,4-4,4c-2.2,0-4-1.8-4-4S-233.7,420.5-231.5,420.5z M-213.5,420.5c2.2,0,4,1.8,4,4  c0,2.2-1.8,4-4,4c-2.2,0-4-1.8-4-4C-217.5,422.3-215.7,420.5-213.5,420.5z M-213.5,432.5c1.1,0,2,0.9,2,2c0,1.1-0.9,2-2,2  c-1.1,0-2-0.9-2-2C-215.5,433.4-214.6,432.5-213.5,432.5z M-195.5,420.5c2.2,0,4,1.8,4,4c0,2.2-1.8,4-4,4c-2.2,0-4-1.8-4-4  C-199.5,422.3-197.7,420.5-195.5,420.5z M-195.5,432.5c1.1,0,2,0.9,2,2c0,1.1-0.9,2-2,2c-1.1,0-2-0.9-2-2  C-197.5,433.4-196.6,432.5-195.5,432.5z M-167.5,404.5c1.1,0,2,0.9,2,2c0,1.1-0.9,2-2,2c-1.1,0-2-0.9-2-2  C-169.5,405.4-168.6,404.5-167.5,404.5z"
            style="fill-rule: evenodd; clip-rule: evenodd;"></path>
    </g>
    <g id="SvgjsG1159" featurekey="nameFeature-0"
        transform="matrix(1.5110305158487471,0,0,1.5110305158487471,116.97793824778701,13.51616606210613)"
        fill="#125c7c">
        <path
            d="M27.24 30.759999999999998 l0 5.52 l-3.72 3.72 l-16.92 0 l-2.8 -2.8 l0 3.2 l-1.8 0 l0 -7.52 l0 -2.48 l1.8 0 l0 4.32 l3.68 3.68 l12.88 0 l-17.96 -21.16 l0 -5.52 l3.72 -3.72 l15.72 0 l2.8 2.8 l0 -3.2 l1.8 0 l0 7.52 l0 2.48 l-1.8 0 l0 -4.32 l-3.68 -3.68 l-11.68 0 z M25.44 31.36 l-18.44 -21.76 l-2.8 2.8 l0 4.24 l18.44 21.76 l2.8 -2.8 l0 -4.24 z M59.760000000000005 11.719999999999999 l0 10.56 l-4.12 4.12 l-12 0 l0 12 l3.2 0 l0 1.6 l-15.6 0 l0 -1.6 l3.2 0 l0 -28.8 l-3.2 0 l0 -1.6 l24.8 0 z M41.84 38.4 l0 -28.8 l-5.6 0 l0 28.8 l5.6 0 z M43.64 24.8 l6.92 0 l0 -15.2 l-6.92 0 l0 15.2 z M57.96 12.399999999999999 l-2.8 -2.8 l-2.8 0 l0 15.2 l2.4 0 l3.2 -3.2 l0 -9.2 z M103.12 9.600000000000001 l0 28.8 l2.8 0 l0 1.6 l-16 0 l0 -1.6 l4 0 l0 -28.56 l-7.88 30.16 l-9.4 0 l-8.68 -30.32 l0 28.72 l4 0 l0 1.6 l-9 0 l0 -1.6 l3.2 0 l0 -28.8 l-3.2 0 l0 -1.6 l8.2 0 l5.72 0 l8.2 28.64 l7.48 -28.64 l1.84 0 l11.52 0 l0 1.6 l-2.8 0 z M83.80000000000001 38.4 l-8.28 -28.8 l-5.8 0 l8.28 28.8 l5.8 0 z M101.32000000000001 9.600000000000001 l-5.6 0 l0 28.8 l5.6 0 l0 -28.8 z M134.36 30.759999999999998 l0 5.52 l-3.72 3.72 l-16.92 0 l-2.8 -2.8 l0 3.2 l-1.8 0 l0 -7.52 l0 -2.48 l1.8 0 l0 4.32 l3.68 3.68 l12.88 0 l-17.96 -21.16 l0 -5.52 l3.72 -3.72 l15.72 0 l2.8 2.8 l0 -3.2 l1.8 0 l0 7.52 l0 2.48 l-1.8 0 l0 -4.32 l-3.68 -3.68 l-11.68 0 z M132.56 31.36 l-18.44 -21.76 l-2.8 2.8 l0 4.24 l18.44 21.76 l2.8 -2.8 l0 -4.24 z">
        </path>
    </g>
</svg>